# xmcd
#
# Track frame offsets:
#	150
#	19353
#	37484
#	53071
#	70903
#	89053
#	109037
#	127024
#	144738
#	164140
#	178955
#	194534
#	213532
#	231424
#	251366
#	262457
#	275393
#	286877
#	305376
#	320405
#
# Disc length: 4465 seconds
#
# Revision: 0
# Processed by: cddbd v1.5.2PL0 Copyright (c) Steve Scherf et al.
# Submitted via: EasyCDDAExtractor 10.2.0.1
#
DISCID=4f116f14
DTITLE=BONEY M. - The Magic Of Boney M
DYEAR=2006
DGENRE=Disco
TTITLE0=Rivers of Babylon
TTITLE1=Brown Girl In The Ring 
TTITLE2=Daddy Cool
TTITLE3=Sunny 
TTITLE4=Mary's Boy Child - Oh My Lord
TTITLE5=Rasputin 
TTITLE6=El Lute
TTITLE7=Hooray! Hooray! It's Holi-Holiday 
TTITLE8=No Woman No Cry
TTITLE9=Painter Man
TTITLE10=Belfast 
TTITLE11=Kalimba De Luna 
TTITLE12=Happy Song
TTITLE13=Still I'm Sad
TTITLE14=Baby Do You Wanna Bump
TTITLE15=Felicidad 
TTITLE16=Gotta Go Home
TTITLE17=Ma Baker 
TTITLE18=Sunny (Remix by Mousse T.) 
TTITLE19=A Moment Of Love
EXTD=
EXTT0=
EXTT1=
EXTT2=
EXTT3=
EXTT4=
EXTT5=
EXTT6=
EXTT7=
EXTT8=
EXTT9=
EXTT10=
EXTT11=
EXTT12=
EXTT13=
EXTT14=
EXTT15=
EXTT16=
EXTT17=
EXTT18=
EXTT19=
PLAYORDER=
